<svg width="512" height="512" viewBox="0 0 512 512" fill="none" xmlns="http://www.w3.org/2000/svg">
<rect width="512" height="512" fill="#F5F5F5"/>
<rect width="512" height="512" fill="black"/>
<g filter="url(#filter0_d_0_1)">
<circle cx="256.5" cy="255.5" r="195.5" fill="black"/>
<circle cx="256.5" cy="255.5" r="190.5" stroke="white" stroke-width="10"/>
</g>
<g filter="url(#filter1_d_0_1)">
<circle cx="256" cy="256" r="171" fill="black"/>
<circle cx="256" cy="256" r="166" stroke="white" stroke-width="10"/>
</g>
<circle cx="135" cy="206" r="121" fill="black"/>
<path d="M498 306C498 372.826 443.826 427 377 427C310.174 427 256 372.826 256 306C256 239.174 310.174 185 377 185C443.826 185 498 239.174 498 306Z" fill="black"/>
<g filter="url(#filter2_d_0_1)">
<path d="M48.8605 268L39.852 237.455H49.0991L53.2753 256.247H53.5139L58.4656 237.455H65.744L70.6957 256.307H70.9343L75.1105 237.455H84.3576L75.3491 268H67.4145L62.2241 250.938H61.9855L56.7951 268H48.8605ZM115.557 268H106.608L116.69 237.455H128.026L138.108 268H129.159L122.477 245.866H122.239L115.557 268ZM113.887 255.949H130.71V262.153H113.887V255.949ZM161.63 268V237.455H169.923V261.318H182.272V268H161.63ZM206.204 268V237.455H214.497V261.318H226.846V268H206.204ZM250.778 268V237.455H263.963C266.23 237.455 268.214 237.902 269.914 238.797C271.614 239.692 272.937 240.95 273.881 242.57C274.826 244.191 275.298 246.085 275.298 248.253C275.298 250.44 274.811 252.335 273.837 253.935C272.872 255.536 271.515 256.769 269.765 257.634C268.025 258.499 265.991 258.932 263.665 258.932H255.79V252.489H261.994C262.969 252.489 263.799 252.32 264.485 251.982C265.181 251.634 265.713 251.141 266.081 250.505C266.459 249.869 266.648 249.118 266.648 248.253C266.648 247.378 266.459 246.632 266.081 246.016C265.713 245.389 265.181 244.912 264.485 244.584C263.799 244.246 262.969 244.077 261.994 244.077H259.071V268H250.778ZM306.855 268H297.907L307.989 237.455H319.324L329.407 268H320.458L313.776 245.866H313.537L306.855 268ZM305.185 255.949H322.009V262.153H305.185V255.949ZM352.929 268V237.455H366.113C368.38 237.455 370.364 237.902 372.064 238.797C373.764 239.692 375.087 240.95 376.032 242.57C376.976 244.191 377.448 246.085 377.448 248.253C377.448 250.44 376.961 252.335 375.987 253.935C375.022 255.536 373.665 256.769 371.915 257.634C370.175 258.499 368.142 258.932 365.815 258.932H357.94V252.489H364.144C365.119 252.489 365.949 252.32 366.635 251.982C367.331 251.634 367.863 251.141 368.231 250.505C368.609 249.869 368.798 249.118 368.798 248.253C368.798 247.378 368.609 246.632 368.231 246.016C367.863 245.389 367.331 244.912 366.635 244.584C365.949 244.246 365.119 244.077 364.144 244.077H361.221V268H352.929ZM401.071 268V237.455H423.085V244.136H409.364V249.386H421.952V256.068H409.364V261.318H423.026V268H401.071ZM447.778 268V237.455H460.963C463.23 237.455 465.213 237.867 466.914 238.692C468.614 239.518 469.936 240.706 470.881 242.257C471.826 243.808 472.298 245.668 472.298 247.835C472.298 250.023 471.811 251.867 470.836 253.369C469.872 254.87 468.515 256.004 466.765 256.769C465.024 257.535 462.991 257.918 460.664 257.918H452.789V251.474H458.994C459.968 251.474 460.799 251.355 461.485 251.116C462.181 250.868 462.713 250.475 463.081 249.938C463.458 249.401 463.647 248.7 463.647 247.835C463.647 246.96 463.458 246.249 463.081 245.702C462.713 245.146 462.181 244.738 461.485 244.479C460.799 244.211 459.968 244.077 458.994 244.077H456.071V268H447.778ZM465.676 253.98L473.312 268H464.304L456.846 253.98H465.676Z" fill="white"/>
<path d="M48.8605 268L47.9013 268.283L48.1128 269H48.8605V268ZM39.852 237.455V236.455H38.5145L38.8928 237.737L39.852 237.455ZM49.0991 237.455L50.0753 237.238L49.9013 236.455H49.0991V237.455ZM53.2753 256.247L52.2991 256.464L52.4731 257.247H53.2753V256.247ZM53.5139 256.247V257.247H54.2845L54.4809 256.502L53.5139 256.247ZM58.4656 237.455V236.455H57.695L57.4986 237.2L58.4656 237.455ZM65.744 237.455L66.7112 237.201L66.5153 236.455H65.744V237.455ZM70.6957 256.307L69.7285 256.561L69.9244 257.307H70.6957V256.307ZM70.9343 256.307V257.307H71.7371L71.9107 256.523L70.9343 256.307ZM75.1105 237.455V236.455H74.3078L74.1341 237.238L75.1105 237.455ZM84.3576 237.455L85.3168 237.737L85.6951 236.455H84.3576V237.455ZM75.3491 268V269H76.0968L76.3083 268.283L75.3491 268ZM67.4145 268L66.4577 268.291L66.6734 269H67.4145V268ZM62.2241 250.938L63.1808 250.646L62.9652 249.938H62.2241V250.938ZM61.9855 250.938V249.938H61.2444L61.0288 250.646L61.9855 250.938ZM56.7951 268V269H57.5362L57.7519 268.291L56.7951 268ZM49.8196 267.717L40.8111 237.172L38.8928 237.737L47.9013 268.283L49.8196 267.717ZM39.852 238.455H49.0991V236.455H39.852V238.455ZM48.1229 237.671L52.2991 256.464L54.2514 256.03L50.0753 237.238L48.1229 237.671ZM53.2753 257.247H53.5139V255.247H53.2753V257.247ZM54.4809 256.502L59.4326 237.709L57.4986 237.2L52.5469 255.992L54.4809 256.502ZM58.4656 238.455H65.744V236.455H58.4656V238.455ZM64.7768 237.709L69.7285 256.561L71.6629 256.053L66.7112 237.201L64.7768 237.709ZM70.6957 257.307H70.9343V255.307H70.6957V257.307ZM71.9107 256.523L76.0868 237.671L74.1341 237.238L69.958 256.091L71.9107 256.523ZM75.1105 238.455H84.3576V236.455H75.1105V238.455ZM83.3985 237.172L74.39 267.717L76.3083 268.283L85.3168 237.737L83.3985 237.172ZM75.3491 267H67.4145V269H75.3491V267ZM68.3712 267.709L63.1808 250.646L61.2674 251.229L66.4577 268.291L68.3712 267.709ZM62.2241 249.938H61.9855V251.938H62.2241V249.938ZM61.0288 250.646L55.8384 267.709L57.7519 268.291L62.9422 251.229L61.0288 250.646ZM56.7951 267H48.8605V269H56.7951V267ZM115.557 268V269H116.3L116.514 268.289L115.557 268ZM106.608 268L105.658 267.687L105.225 269H106.608V268ZM116.69 237.455V236.455H115.967L115.741 237.141L116.69 237.455ZM128.026 237.455L128.975 237.141L128.749 236.455H128.026V237.455ZM138.108 268V269H139.491L139.058 267.687L138.108 268ZM129.159 268L128.202 268.289L128.417 269H129.159V268ZM122.477 245.866L123.435 245.577L123.22 244.866H122.477V245.866ZM122.239 245.866V244.866H121.496L121.281 245.577L122.239 245.866ZM113.887 255.949V254.949H112.887V255.949H113.887ZM130.71 255.949H131.71V254.949H130.71V255.949ZM130.71 262.153V263.153H131.71V262.153H130.71ZM113.887 262.153H112.887V263.153H113.887V262.153ZM115.557 267H106.608V269H115.557V267ZM107.558 268.313L117.64 237.768L115.741 237.141L105.658 267.687L107.558 268.313ZM116.69 238.455H128.026V236.455H116.69V238.455ZM127.076 237.768L137.158 268.313L139.058 267.687L128.975 237.141L127.076 237.768ZM138.108 267H129.159V269H138.108V267ZM130.117 267.711L123.435 245.577L121.52 246.155L128.202 268.289L130.117 267.711ZM122.477 244.866H122.239V246.866H122.477V244.866ZM121.281 245.577L114.6 267.711L116.514 268.289L123.196 246.155L121.281 245.577ZM113.887 256.949H130.71V254.949H113.887V256.949ZM129.71 255.949V262.153H131.71V255.949H129.71ZM130.71 261.153H113.887V263.153H130.71V261.153ZM114.887 262.153V255.949H112.887V262.153H114.887ZM161.63 268H160.63V269H161.63V268ZM161.63 237.455V236.455H160.63V237.455H161.63ZM169.923 237.455H170.923V236.455H169.923V237.455ZM169.923 261.318H168.923V262.318H169.923V261.318ZM182.272 261.318H183.272V260.318H182.272V261.318ZM182.272 268V269H183.272V268H182.272ZM162.63 268V237.455H160.63V268H162.63ZM161.63 238.455H169.923V236.455H161.63V238.455ZM168.923 237.455V261.318H170.923V237.455H168.923ZM169.923 262.318H182.272V260.318H169.923V262.318ZM181.272 261.318V268H183.272V261.318H181.272ZM182.272 267H161.63V269H182.272V267ZM206.204 268H205.204V269H206.204V268ZM206.204 237.455V236.455H205.204V237.455H206.204ZM214.497 237.455H215.497V236.455H214.497V237.455ZM214.497 261.318H213.497V262.318H214.497V261.318ZM226.846 261.318H227.846V260.318H226.846V261.318ZM226.846 268V269H227.846V268H226.846ZM207.204 268V237.455H205.204V268H207.204ZM206.204 238.455H214.497V236.455H206.204V238.455ZM213.497 237.455V261.318H215.497V237.455H213.497ZM214.497 262.318H226.846V260.318H214.497V262.318ZM225.846 261.318V268H227.846V261.318H225.846ZM226.846 267H206.204V269H226.846V267ZM250.778 268H249.778V269H250.778V268ZM250.778 237.455V236.455H249.778V237.455H250.778ZM269.914 238.797L269.448 239.682L269.448 239.682L269.914 238.797ZM273.881 242.57L274.745 242.067L274.745 242.067L273.881 242.57ZM273.837 253.935L272.982 253.415L272.98 253.419L273.837 253.935ZM269.765 257.634L269.322 256.738L269.32 256.739L269.765 257.634ZM255.79 258.932H254.79V259.932H255.79V258.932ZM255.79 252.489V251.489H254.79V252.489H255.79ZM264.485 251.982L264.927 252.879L264.932 252.876L264.485 251.982ZM266.081 250.505L265.221 249.994L265.215 250.004L266.081 250.505ZM266.081 246.016L265.219 246.522L265.223 246.53L265.228 246.538L266.081 246.016ZM264.485 244.584L264.043 245.481L264.051 245.485L264.059 245.488L264.485 244.584ZM259.071 244.077V243.077H258.071V244.077H259.071ZM259.071 268V269H260.071V268H259.071ZM251.778 268V237.455H249.778V268H251.778ZM250.778 238.455H263.963V236.455H250.778V238.455ZM263.963 238.455C266.097 238.455 267.915 238.875 269.448 239.682L270.38 237.912C268.512 236.929 266.363 236.455 263.963 236.455V238.455ZM269.448 239.682C270.987 240.492 272.169 241.619 273.017 243.074L274.745 242.067C273.704 240.28 272.242 238.892 270.38 237.912L269.448 239.682ZM273.017 243.074C273.86 244.519 274.298 246.234 274.298 248.253H276.298C276.298 245.936 275.792 243.863 274.745 242.067L273.017 243.074ZM274.298 248.253C274.298 250.288 273.846 251.996 272.982 253.415L274.691 254.455C275.776 252.673 276.298 250.593 276.298 248.253H274.298ZM272.98 253.419C272.119 254.849 270.908 255.953 269.322 256.738L270.208 258.531C272.121 257.585 273.625 256.223 274.693 254.451L272.98 253.419ZM269.32 256.739C267.743 257.523 265.867 257.932 263.665 257.932V259.932C266.116 259.932 268.307 259.476 270.21 258.53L269.32 256.739ZM263.665 257.932H255.79V259.932H263.665V257.932ZM256.79 258.932V252.489H254.79V258.932H256.79ZM255.79 253.489H261.994V251.489H255.79V253.489ZM261.994 253.489C263.081 253.489 264.071 253.3 264.927 252.879L264.043 251.085C263.527 251.339 262.856 251.489 261.994 251.489V253.489ZM264.932 252.876C265.792 252.446 266.475 251.821 266.947 251.005L265.215 250.004C264.951 250.461 264.57 250.821 264.038 251.087L264.932 252.876ZM266.941 251.016C267.425 250.2 267.648 249.267 267.648 248.253H265.648C265.648 248.969 265.493 249.537 265.221 249.994L266.941 251.016ZM267.648 248.253C267.648 247.232 267.426 246.297 266.933 245.493L265.228 246.538C265.491 246.967 265.648 247.523 265.648 248.253H267.648ZM266.943 245.509C266.467 244.699 265.778 244.088 264.911 243.679L264.059 245.488C264.584 245.736 264.959 246.08 265.219 246.522L266.943 245.509ZM264.927 243.687C264.071 243.265 263.081 243.077 261.994 243.077V245.077C262.856 245.077 263.527 245.226 264.043 245.481L264.927 243.687ZM261.994 243.077H259.071V245.077H261.994V243.077ZM258.071 244.077V268H260.071V244.077H258.071ZM259.071 267H250.778V269H259.071V267ZM306.855 268V269H307.598L307.813 268.289L306.855 268ZM297.907 268L296.957 267.687L296.523 269H297.907V268ZM307.989 237.455V236.455H307.266L307.039 237.141L307.989 237.455ZM319.324 237.455L320.274 237.141L320.047 236.455H319.324V237.455ZM329.407 268V269H330.79L330.356 267.687L329.407 268ZM320.458 268L319.5 268.289L319.715 269H320.458V268ZM313.776 245.866L314.733 245.577L314.519 244.866H313.776V245.866ZM313.537 245.866V244.866H312.795L312.58 245.577L313.537 245.866ZM305.185 255.949V254.949H304.185V255.949H305.185ZM322.009 255.949H323.009V254.949H322.009V255.949ZM322.009 262.153V263.153H323.009V262.153H322.009ZM305.185 262.153H304.185V263.153H305.185V262.153ZM306.855 267H297.907V269H306.855V267ZM298.856 268.313L308.939 237.768L307.039 237.141L296.957 267.687L298.856 268.313ZM307.989 238.455H319.324V236.455H307.989V238.455ZM318.375 237.768L328.457 268.313L330.356 267.687L320.274 237.141L318.375 237.768ZM329.407 267H320.458V269H329.407V267ZM321.415 267.711L314.733 245.577L312.819 246.155L319.5 268.289L321.415 267.711ZM313.776 244.866H313.537V246.866H313.776V244.866ZM312.58 245.577L305.898 267.711L307.813 268.289L314.495 246.155L312.58 245.577ZM305.185 256.949H322.009V254.949H305.185V256.949ZM321.009 255.949V262.153H323.009V255.949H321.009ZM322.009 261.153H305.185V263.153H322.009V261.153ZM306.185 262.153V255.949H304.185V262.153H306.185ZM352.929 268H351.929V269H352.929V268ZM352.929 237.455V236.455H351.929V237.455H352.929ZM372.064 238.797L371.598 239.682L371.598 239.682L372.064 238.797ZM376.032 242.57L376.896 242.067L376.896 242.067L376.032 242.57ZM375.987 253.935L375.133 253.415L375.13 253.419L375.987 253.935ZM371.915 257.634L371.472 256.738L371.47 256.739L371.915 257.634ZM357.94 258.932H356.94V259.932H357.94V258.932ZM357.94 252.489V251.489H356.94V252.489H357.94ZM366.635 251.982L367.077 252.879L367.082 252.876L366.635 251.982ZM368.231 250.505L367.371 249.994L367.365 250.004L368.231 250.505ZM368.231 246.016L367.369 246.522L367.374 246.53L367.379 246.538L368.231 246.016ZM366.635 244.584L366.193 245.481L366.201 245.485L366.209 245.488L366.635 244.584ZM361.221 244.077V243.077H360.221V244.077H361.221ZM361.221 268V269H362.221V268H361.221ZM353.929 268V237.455H351.929V268H353.929ZM352.929 238.455H366.113V236.455H352.929V238.455ZM366.113 238.455C368.247 238.455 370.066 238.875 371.598 239.682L372.53 237.912C370.662 236.929 368.513 236.455 366.113 236.455V238.455ZM371.598 239.682C373.137 240.492 374.32 241.619 375.168 243.074L376.896 242.067C375.854 240.28 374.392 238.892 372.53 237.912L371.598 239.682ZM375.168 243.074C376.01 244.519 376.448 246.234 376.448 248.253H378.448C378.448 245.936 377.942 243.863 376.896 242.067L375.168 243.074ZM376.448 248.253C376.448 250.288 375.997 251.996 375.133 253.415L376.841 254.455C377.926 252.673 378.448 250.593 378.448 248.253H376.448ZM375.13 253.419C374.269 254.849 373.059 255.953 371.472 256.738L372.358 258.531C374.272 257.585 375.776 256.223 376.843 254.451L375.13 253.419ZM371.47 256.739C369.893 257.523 368.017 257.932 365.815 257.932V259.932C368.266 259.932 370.457 259.476 372.36 258.53L371.47 256.739ZM365.815 257.932H357.94V259.932H365.815V257.932ZM358.94 258.932V252.489H356.94V258.932H358.94ZM357.94 253.489H364.144V251.489H357.94V253.489ZM364.144 253.489C365.231 253.489 366.221 253.3 367.077 252.879L366.193 251.085C365.677 251.339 365.006 251.489 364.144 251.489V253.489ZM367.082 252.876C367.943 252.446 368.625 251.821 369.097 251.005L367.365 250.004C367.101 250.461 366.72 250.821 366.188 251.087L367.082 252.876ZM369.091 251.016C369.575 250.2 369.798 249.267 369.798 248.253H367.798C367.798 248.969 367.643 249.537 367.371 249.994L369.091 251.016ZM369.798 248.253C369.798 247.232 369.576 246.297 369.084 245.493L367.379 246.538C367.641 246.967 367.798 247.523 367.798 248.253H369.798ZM369.093 245.509C368.617 244.699 367.928 244.088 367.062 243.679L366.209 245.488C366.734 245.736 367.109 246.08 367.369 246.522L369.093 245.509ZM367.077 243.687C366.221 243.265 365.231 243.077 364.144 243.077V245.077C365.006 245.077 365.677 245.226 366.193 245.481L367.077 243.687ZM364.144 243.077H361.221V245.077H364.144V243.077ZM360.221 244.077V268H362.221V244.077H360.221ZM361.221 267H352.929V269H361.221V267ZM401.071 268H400.071V269H401.071V268ZM401.071 237.455V236.455H400.071V237.455H401.071ZM423.085 237.455H424.085V236.455H423.085V237.455ZM423.085 244.136V245.136H424.085V244.136H423.085ZM409.364 244.136V243.136H408.364V244.136H409.364ZM409.364 249.386H408.364V250.386H409.364V249.386ZM421.952 249.386H422.952V248.386H421.952V249.386ZM421.952 256.068V257.068H422.952V256.068H421.952ZM409.364 256.068V255.068H408.364V256.068H409.364ZM409.364 261.318H408.364V262.318H409.364V261.318ZM423.026 261.318H424.026V260.318H423.026V261.318ZM423.026 268V269H424.026V268H423.026ZM402.071 268V237.455H400.071V268H402.071ZM401.071 238.455H423.085V236.455H401.071V238.455ZM422.085 237.455V244.136H424.085V237.455H422.085ZM423.085 243.136H409.364V245.136H423.085V243.136ZM408.364 244.136V249.386H410.364V244.136H408.364ZM409.364 250.386H421.952V248.386H409.364V250.386ZM420.952 249.386V256.068H422.952V249.386H420.952ZM421.952 255.068H409.364V257.068H421.952V255.068ZM408.364 256.068V261.318H410.364V256.068H408.364ZM409.364 262.318H423.026V260.318H409.364V262.318ZM422.026 261.318V268H424.026V261.318H422.026ZM423.026 267H401.071V269H423.026V267ZM447.778 268H446.778V269H447.778V268ZM447.778 237.455V236.455H446.778V237.455H447.778ZM470.881 242.257L471.735 241.737L471.735 241.737L470.881 242.257ZM470.836 253.369L469.997 252.824L469.995 252.828L470.836 253.369ZM466.765 256.769L466.364 255.853L466.362 255.854L466.765 256.769ZM452.789 257.918H451.789V258.918H452.789V257.918ZM452.789 251.474V250.474H451.789V251.474H452.789ZM461.485 251.116L461.813 252.061L461.821 252.058L461.485 251.116ZM463.081 249.938L462.263 249.363L462.256 249.373L463.081 249.938ZM463.081 245.702L462.246 246.254L462.252 246.262L462.258 246.271L463.081 245.702ZM461.485 244.479L461.12 245.411L461.128 245.414L461.137 245.417L461.485 244.479ZM456.071 244.077V243.077H455.071V244.077H456.071ZM456.071 268V269H457.071V268H456.071ZM465.676 253.98L466.554 253.502L466.27 252.98H465.676V253.98ZM473.312 268V269H474.996L474.19 267.522L473.312 268ZM464.304 268L463.421 268.47L463.703 269H464.304V268ZM456.846 253.98V252.98H455.182L455.963 254.45L456.846 253.98ZM448.778 268V237.455H446.778V268H448.778ZM447.778 238.455H460.963V236.455H447.778V238.455ZM460.963 238.455C463.108 238.455 464.937 238.845 466.477 239.592L467.35 237.793C465.489 236.89 463.351 236.455 460.963 236.455V238.455ZM466.477 239.592C468.012 240.337 469.186 241.397 470.027 242.777L471.735 241.737C470.686 240.015 469.216 238.698 467.35 237.793L466.477 239.592ZM470.027 242.777C470.859 244.144 471.298 245.815 471.298 247.835H473.298C473.298 245.52 472.792 243.473 471.735 241.737L470.027 242.777ZM471.298 247.835C471.298 249.873 470.845 251.518 469.997 252.824L471.675 253.913C472.776 252.217 473.298 250.173 473.298 247.835H471.298ZM469.995 252.828C469.145 254.152 467.946 255.161 466.364 255.853L467.165 257.685C469.083 256.847 470.599 255.588 471.678 253.909L469.995 252.828ZM466.362 255.854C464.774 256.553 462.883 256.918 460.664 256.918V258.918C463.099 258.918 465.275 258.517 467.167 257.684L466.362 255.854ZM460.664 256.918H452.789V258.918H460.664V256.918ZM453.789 257.918V251.474H451.789V257.918H453.789ZM452.789 252.474H458.994V250.474H452.789V252.474ZM458.994 252.474C460.044 252.474 460.992 252.346 461.813 252.061L461.156 250.172C460.605 250.364 459.892 250.474 458.994 250.474V252.474ZM461.821 252.058C462.688 251.749 463.403 251.237 463.906 250.503L462.256 249.373C462.023 249.713 461.674 249.987 461.148 250.175L461.821 252.058ZM463.898 250.514C464.427 249.762 464.647 248.842 464.647 247.835H462.647C462.647 248.559 462.49 249.04 462.263 249.363L463.898 250.514ZM464.647 247.835C464.647 246.821 464.428 245.894 463.903 245.134L462.258 246.271C462.489 246.605 462.647 247.1 462.647 247.835H464.647ZM463.915 245.151C463.417 244.397 462.704 243.866 461.833 243.542L461.137 245.417C461.657 245.61 462.008 245.894 462.246 246.254L463.915 245.151ZM461.849 243.548C461.016 243.222 460.055 243.077 458.994 243.077V245.077C459.882 245.077 460.581 245.2 461.12 245.411L461.849 243.548ZM458.994 243.077H456.071V245.077H458.994V243.077ZM455.071 244.077V268H457.071V244.077H455.071ZM456.071 267H447.778V269H456.071V267ZM464.798 254.458L472.434 268.478L474.19 267.522L466.554 253.502L464.798 254.458ZM473.312 267H464.304V269H473.312V267ZM465.186 267.53L457.729 253.51L455.963 254.45L463.421 268.47L465.186 267.53ZM456.846 254.98H465.676V252.98H456.846V254.98Z" fill="white"/>
</g>
<defs>
<filter id="filter0_d_0_1" x="57" y="60" width="399" height="399" filterUnits="userSpaceOnUse" color-interpolation-filters="sRGB">
<feFlood flood-opacity="0" result="BackgroundImageFix"/>
<feColorMatrix in="SourceAlpha" type="matrix" values="0 0 0 0 0 0 0 0 0 0 0 0 0 0 0 0 0 0 127 0" result="hardAlpha"/>
<feOffset dy="4"/>
<feGaussianBlur stdDeviation="2"/>
<feComposite in2="hardAlpha" operator="out"/>
<feColorMatrix type="matrix" values="0 0 0 0 0 0 0 0 0 0 0 0 0 0 0 0 0 0 0.25 0"/>
<feBlend mode="normal" in2="BackgroundImageFix" result="effect1_dropShadow_0_1"/>
<feBlend mode="normal" in="SourceGraphic" in2="effect1_dropShadow_0_1" result="shape"/>
</filter>
<filter id="filter1_d_0_1" x="81" y="85" width="350" height="350" filterUnits="userSpaceOnUse" color-interpolation-filters="sRGB">
<feFlood flood-opacity="0" result="BackgroundImageFix"/>
<feColorMatrix in="SourceAlpha" type="matrix" values="0 0 0 0 0 0 0 0 0 0 0 0 0 0 0 0 0 0 127 0" result="hardAlpha"/>
<feOffset dy="4"/>
<feGaussianBlur stdDeviation="2"/>
<feComposite in2="hardAlpha" operator="out"/>
<feColorMatrix type="matrix" values="0 0 0 0 0 0 0 0 0 0 0 0 0 0 0 0 0 0 0.25 0"/>
<feBlend mode="normal" in2="BackgroundImageFix" result="effect1_dropShadow_0_1"/>
<feBlend mode="normal" in="SourceGraphic" in2="effect1_dropShadow_0_1" result="shape"/>
</filter>
<filter id="filter2_d_0_1" x="35.852" y="237.455" width="441.46" height="38.5455" filterUnits="userSpaceOnUse" color-interpolation-filters="sRGB">
<feFlood flood-opacity="0" result="BackgroundImageFix"/>
<feColorMatrix in="SourceAlpha" type="matrix" values="0 0 0 0 0 0 0 0 0 0 0 0 0 0 0 0 0 0 127 0" result="hardAlpha"/>
<feOffset dy="4"/>
<feGaussianBlur stdDeviation="2"/>
<feComposite in2="hardAlpha" operator="out"/>
<feColorMatrix type="matrix" values="0 0 0 0 0 0 0 0 0 0 0 0 0 0 0 0 0 0 0.25 0"/>
<feBlend mode="normal" in2="BackgroundImageFix" result="effect1_dropShadow_0_1"/>
<feBlend mode="normal" in="SourceGraphic" in2="effect1_dropShadow_0_1" result="shape"/>
</filter>
</defs>
</svg>
